<svg xmlns="http://www.w3.org/2000/svg" xmlns:xlink="http://www.w3.org/1999/xlink" width="60" height="60" viewBox="0 0 60 60"><defs><style>.a{clip-path:url(#b);}.b{fill:#d71e28;}.c{fill:#fff;}</style><clipPath id="b"><rect width="60" height="60"/></clipPath></defs><g id="a" class="a"><rect class="c" width="60" height="60"/><g transform="translate(-215.47 482)"><g transform="translate(216.47 -481)"><path class="b" d="M127,28a29,29,0,1,0,14.5,3.885A29,29,0,0,0,127,28Zm0,54.778a25.778,25.778,0,1,1,12.889-3.454A25.778,25.778,0,0,1,127,82.777Z" transform="translate(-98.001 -27.999)"/><path class="b" d="M282.36,235.065a7.772,7.772,0,0,1-15.538,0v-7.653h-2.394v7.653a10.173,10.173,0,0,0,8.962,10.086v4.289h-5.525v2.387h13.443v-2.38h-5.525v-4.3a10.173,10.173,0,0,0,8.962-10.086v-7.653H282.36Z" transform="translate(-245.589 -204.965)"/><path class="b" d="M305.977,154.373a5.924,5.924,0,0,0,5.924-5.924V135.657a5.927,5.927,0,0,0-11.855,0v12.792a5.924,5.924,0,0,0,5.931,5.924Z" transform="translate(-276.977 -118.282)"/></g></g></g></svg>