<svg xmlns="http://www.w3.org/2000/svg" xmlns:xlink="http://www.w3.org/1999/xlink" width="60" height="60" viewBox="0 0 60 60"><defs><style>.a{clip-path:url(#b);}.b{fill:#d71e28;}.c{fill:#fff;}</style><clipPath id="b"><rect width="60" height="60"/></clipPath></defs><g id="a" class="a"><rect class="c" width="60" height="60"/><g transform="translate(-122.989 -56.362)"><path class="b" d="M160.985,112.713V60.5a2.141,2.141,0,0,0-3.4-1.727L138.84,72.548h-8.428a6.423,6.423,0,0,0-6.423,6.423V94.244a6.423,6.423,0,0,0,6.423,6.423h8.421L157.58,114.44a2.141,2.141,0,0,0,3.411-1.727ZM137.4,96.385h-6.987a2.14,2.14,0,0,1-2.141-2.141V78.972a2.14,2.14,0,0,1,2.141-2.141H137.4Zm19.3,12.1L141.68,97.441V75.774L156.7,64.734Z" transform="translate(0)"/><path class="b" d="M444.288,223.4a2.141,2.141,0,1,0,1.741,3.911,9.627,9.627,0,0,0,0-17.62,2.141,2.141,0,0,0-1.741,3.911,5.345,5.345,0,0,1,0,9.791Z" transform="translate(-278.336 -131.898)"/><path class="b" d="M451.419,148.687a2.141,2.141,0,0,0-.82,4.2,12.76,12.76,0,0,1,0,24.978,2.141,2.141,0,0,0,.82,4.2,17.042,17.042,0,0,0,0-33.407Z" transform="translate(-283.476 -78.779)"/></g></g></svg>