<svg xmlns="http://www.w3.org/2000/svg" xmlns:xlink="http://www.w3.org/1999/xlink" width="60" height="60" viewBox="0 0 60 60"><defs><style>.a{clip-path:url(#b);}.b{fill:#d71e28;}.c{fill:#fff;}</style><clipPath id="b"><rect width="60" height="60"/></clipPath></defs><g id="a" class="a"><rect class="c" width="60" height="60"/><g transform="translate(-97.001 -26.999)"><path class="b" d="M127,28a29,29,0,1,0,14.5,3.885A29,29,0,0,0,127,28Zm-5.742,17.452a5.745,5.745,0,0,1,11.49,0v12.4a5.745,5.745,0,1,1-11.49,0ZM136.848,58.34h0a9.86,9.86,0,0,1-8.687,9.8V72.3h5.355v2.314h-13.03V72.3h5.356V68.142a9.86,9.86,0,0,1-8.687-9.776V50.948h2.314v7.418a7.534,7.534,0,0,0,15.061,0V50.948h2.314Z"/></g></g></svg>